<?xml version="1.0" encoding="UTF-8"?>
<svg id="Layer_1" data-name="Layer 1" xmlns="http://www.w3.org/2000/svg" viewBox="0 0 207.15 29.35">
  <path fill="#FFFFFF" fill-rule="evenodd" d="M9.1,5.65l.27-5.65h-3.31l.27,5.65L1.02,3.65l-1.02,3.15,5.46,1.5-3.54,4.42,2.68,1.95,3.11-4.73,3.11,4.73,2.68-1.95-3.54-4.42,5.46-1.49-1.02-3.15-5.3,2ZM7.71,7.57h0s0,0,0,0h0s0,0,0,0Z"/>
  <path fill="#FFFFFF" d="M74.58,8.01v1.73h.24c.29-.6.72-1.05,1.28-1.34.56-.29,1.31-.44,2.26-.44h2.15v3.54h-2.17c-.82,0-1.49.14-2.01.41-.52.27-.91.69-1.18,1.27-.26.58-.38,1.32-.38,2.23v8.05h-4.35v-15.44h4.16Z"/>
  <path fill="#FFFFFF" d="M54.51,12.45c.11-.96.46-1.8,1.05-2.52.6-.73,1.42-1.29,2.45-1.68,1.04-.39,2.27-.59,3.67-.59s2.68.22,3.7.66c1.02.44,1.81,1.12,2.36,2.04.55.9.83,2.05.83,3.44v9.66h-4.01v-1.59h-.24c-.32.53-.87.97-1.62,1.33-.76.35-1.79.53-3.11.53-1.18,0-2.21-.19-3.1-.56-.89-.38-1.57-.93-2.06-1.64-.48-.72-.72-1.56-.72-2.54,0-1.47.5-2.6,1.49-3.39,1-.8,2.34-1.29,4-1.49l5.22-.65v-.28c0-.83-.23-1.43-.69-1.81-.46-.39-1.16-.59-2.09-.59s-1.66.18-2.18.55c-.52.35-.82.88-.89,1.58h-4.04v-.44ZM58.02,18.73c0,.56.22,1,.66,1.33.44.32,1.06.49,1.86.49s1.43-.13,2.01-.4,1.03-.66,1.36-1.19c.33-.53.5-1.18.5-1.95v-.63l-4.23.56c-.67.09-1.19.28-1.58.58s-.58.7-.58,1.22Z"/>
  <path fill="#FFFFFF" d="M36.54,8.01h4.23v1.5h.24c.53-.63,1.19-1.09,1.98-1.37.79-.29,1.69-.44,2.7-.44,1.33,0,2.52.3,3.58.9,1.06.59,1.9,1.49,2.52,2.7.62,1.2.93,2.68.93,4.44s-.31,3.24-.93,4.45c-.62,1.2-1.46,2.09-2.52,2.68-1.06.59-2.26.88-3.58.88-.98,0-1.86-.13-2.63-.4-.77-.27-1.42-.69-1.95-1.28h-.22v7.27h-4.35V8.01ZM40.7,15.74c0,.99.16,1.84.47,2.55.31.7.76,1.23,1.33,1.59.58.35,1.25.53,2.02.53s1.44-.18,2.01-.53c.58-.36,1.03-.89,1.34-1.59.31-.71.47-1.56.47-2.55s-.16-1.85-.47-2.55c-.31-.7-.76-1.23-1.34-1.59-.57-.36-1.24-.55-2.01-.55s-1.44.18-2.02.55c-.57.36-1.01.89-1.33,1.59-.31.7-.47,1.55-.47,2.55Z"/>
  <path fill="#FFFFFF" d="M17.28,8.01c0-1.23.31-2.31.94-3.23.64-.92,1.58-1.64,2.83-2.15,1.26-.51,2.79-.77,4.59-.77s3.37.27,4.66.8c1.29.53,2.29,1.29,2.99,2.29.71.99,1.1,2.17,1.18,3.54v.44h-4.22c-.04-.87-.26-1.56-.66-2.09-.39-.53-.92-.91-1.59-1.14-.66-.24-1.43-.35-2.32-.35-.84,0-1.55.1-2.15.29-.6.2-1.06.49-1.39.87-.31.37-.47.83-.47,1.37s.14.99.43,1.34c.29.35.7.64,1.24.86.54.21,1.22.37,2.05.49l2.36.34c1.54.22,2.83.58,3.85,1.08,1.03.5,1.81,1.18,2.35,2.05.54.87.81,1.93.81,3.2s-.33,2.47-.99,3.47c-.66.98-1.64,1.75-2.94,2.3-1.29.54-2.86.81-4.72.81s-3.5-.28-4.88-.83c-1.39-.56-2.46-1.35-3.23-2.36-.76-1.02-1.17-2.22-1.22-3.58v-.44h4.22c.11,1.29.61,2.23,1.5,2.83.9.6,2.08.9,3.54.9.91,0,1.7-.11,2.35-.32.65-.23,1.14-.56,1.47-.99.33-.43.5-.95.5-1.56s-.14-1.07-.43-1.45c-.29-.37-.7-.66-1.25-.87-.55-.21-1.27-.37-2.15-.5l-2.36-.34c-1.49-.22-2.75-.59-3.78-1.11-1.02-.53-1.8-1.22-2.33-2.08-.52-.87-.78-1.9-.78-3.1Z"/>
  <path fill="#FFFFFF" d="M92.54,8.01l-6,5.68h-.24V2.21h-4.35v21.24h4.35v-6.18h.24l5.9,6.18h5.13v-.44l-7.61-7.64,7.57-6.92v-.44h-4.99Z"/>
  <path fill="#FFFFFF" d="M143.83,19.23c0-.9-.73-1.64-1.63-1.64h-10.23c-.89,0-1.63.73-1.63,1.64s.73,1.64,1.63,1.64h10.23c.89,0,1.63-.74,1.63-1.64Z"/>
  <path fill="#FFFFFF" d="M205.65,23.33h-5.56c-.21,0-.33-.23-.23-.41l6.48-10.54c.05-.07.08-.15.11-.23,0,0,0-.01,0-.02.02-.06.04-.12.05-.18.01-.05.03-.1.04-.14,0-.02,0-.04,0-.06.01-.07.02-.14.02-.22,0-.84-.68-1.53-1.51-1.53h-8c-.79,0-1.49.59-1.57,1.39-.09.92.62,1.68,1.51,1.68h4.86c.21,0,.33.23.23.41l-6.44,10.47c-.04.07-.07.14-.11.21-.11.21-.17.44-.17.69,0,.84.67,1.53,1.51,1.53h8.75c.83,0,1.51-.69,1.51-1.53,0-.83-.67-1.52-1.51-1.52Z"/>
  <path fill="#FFFFFF" d="M165.39,9.88s-.01,0-.01,0c-.02,0-.03,0-.05-.01-.01,0-.03,0-.04,0h-.03c-.36-.03-1.19-.03-1.63.02h0c-.82.1-1.71.38-2.34.85-.27.21-.52.44-.74.68-.02-.84-.7-1.52-1.53-1.52s-1.53.7-1.53,1.55v13.55c0,.21.04.42.12.61.24.56.78.96,1.42.96.85,0,1.54-.7,1.54-1.56v-7.39c0-1.37.37-2.51,1.09-3.37.6-.7,1.26-1.11,2-1.23.37-.05.75-.04.75-.04h.75c.85,0,1.54-.7,1.54-1.56,0-.79-.57-1.43-1.31-1.54Z"/>
  <path fill="#FFFFFF" d="M150.56,12.51c.75-1.06,1.2-2.35,1.2-3.76,0-3.56-2.84-6.44-6.35-6.44h-.87v-.7c0-.89-.71-1.61-1.58-1.61s-1.58.72-1.58,1.61v.7h-1.61s-1.02,0-1.02,0c-.85,0-1.53.7-1.53,1.55s.69,1.55,1.53,1.55h1.02s5.63,0,5.63,0c1.76,0,3.18,1.45,3.18,3.23h0c0,1.74-1.35,3.2-3.05,3.23-.31,0-1.25,0-1.25,0h-.04c-.94.02-1.68.84-1.58,1.82.09.85.84,1.48,1.69,1.48h3.21c.33,0,.66.02.98.11,1.72.46,3,2.05,3,3.95,0,2.25-1.8,4.08-4.02,4.08h-11.52c-.86,0-1.62.64-1.71,1.51-.09.99.68,1.83,1.64,1.83h5.45v.72c0,.89.71,1.61,1.58,1.61s1.58-.72,1.58-1.61v-.72h3.11c4.02,0,7.27-3.31,7.27-7.38,0-3.02-1.79-5.63-4.37-6.76Z"/>
  <path fill="#FFFFFF" d="M137.69,13.54c0-.9-.73-1.64-1.64-1.64h-7.31c-.9,0-1.64.73-1.64,1.64s.73,1.64,1.64,1.64h7.31c.91,0,1.64-.74,1.64-1.64Z"/>
  <path fill="#FFFFFF" d="M134.55,10.35h7.31c.9,0,1.64-.73,1.64-1.64s-.73-1.64-1.64-1.64h-7.31c-.9,0-1.64.73-1.64,1.64s.73,1.64,1.64,1.64Z"/>
  <path fill="#FFFFFF" fill-rule="evenodd" d="M178.03,11.66c1.05,1.05,1.64,2.35,1.78,3.86h0c.07.7,0,1.96,0,1.96,0,1.02-.82,1.85-1.83,1.85h-7.25c-.15,0-.27.12-.27.27v.45c0,1.16.36,2.05,1.11,2.74.75.69,1.74,1.03,2.94,1.03.32,0,.66-.04.97-.1.56-.13,1.21-.42,1.65-.77.03-.02.05-.04.08-.05.03-.02.05-.04.08-.05,0,0,.01,0,.02-.01,0,0,.01,0,.02-.01c.05-.04.11-.07.17-.1,0,0,0,0,.01,0,0,0,0,0,.01,0l.16-.07s.02,0,.04-.01h0c.06-.02.12-.04.18-.05,0,0,.01,0,.02,0,0,0,.01,0,.02,0,.06-.01.12-.02.19-.02h.02c.62,0,1.15.41,1.33.97,0,.01,0,.02.01.04,0,.03.01.05.02.08.01.03.02.05.02.08.02.08.02.16.02.24v.05c0,.05,0,.11-.01.17,0,.01,0,.02,0,.03-.01.07-.03.13-.05.19,0,0,0,.02,0,.02,0,0,0,.01,0,.02-.01.05-.03.1-.05.14,0,0,0,0,0,.01,0,.01-.01.02-.02.04-.03.06-.06.11-.1.17-.23.37-.66.73-1.31,1.11-.96.56-2.16.84-3.56.84-2.06,0-3.76-.63-5.06-1.87-1.31-1.24-1.98-2.89-1.98-4.91v-3.51c0-1.79.63-3.35,1.86-4.65,1.23-1.3,2.74-1.97,4.48-1.97s3.1.61,4.31,1.83ZM176.29,16.69c.32,0,.59-.26.59-.59v-.21c0-.95-.31-1.57-.93-2.28-.62-.7-1.36-1.04-2.26-1.04s-1.62.32-2.27.97c-.64.66-.96,1.44-.96,2.4v.15c0,.33.27.6.59.6h5.23Z"/>
  <path fill="#FFFFFF" fill-rule="evenodd" d="M192.37,11.66c1.05,1.05,1.64,2.35,1.78,3.86h0c.07.7,0,1.96,0,1.96,0,1.02-.82,1.85-1.83,1.85h-7.25c-.15,0-.27.12-.27.27v.45c0,1.16.36,2.05,1.11,2.74.75.69,1.74,1.03,2.94,1.03.32,0,.66-.04.97-.1.56-.13,1.21-.42,1.65-.77.03-.02.05-.04.08-.05.03-.02.05-.04.08-.05,0,0,.01,0,.02-.01s.01,0,.02-.01c.05-.04.11-.07.17-.1,0,0,0,0,.01,0,0,0,0,0,.01,0l.16-.07s.02,0,.04-.01h0c.06-.02.12-.04.18-.05,0,0,.01,0,.02,0,0,0,.01,0,.02,0,.06-.01.12-.02.19-.02h.02c.62,0,1.15.41,1.34.97,0,.01,0,.02.01.04,0,.03.01.05.02.08.01.03.02.05.02.08.02.08.02.16.02.24v.05c0,.05,0,.11-.01.17,0,.01,0,.02,0,.03-.01.07-.03.13-.05.19,0,0,0,.02,0,.02,0,0,0,.01,0,.02-.01.05-.03.1-.05.14,0,0,0,0,0,.01,0,.01-.01.02-.02.04-.03.06-.06.11-.1.17-.23.37-.66.73-1.31,1.11-.96.56-2.16.84-3.56.84-2.06,0-3.76-.63-5.06-1.87-1.31-1.24-1.98-2.89-1.98-4.91v-3.51c0-1.79.63-3.35,1.86-4.65,1.23-1.3,2.74-1.97,4.48-1.97s3.1.61,4.31,1.83ZM190.63,16.69c.32,0,.59-.26.59-.59v-.21c0-.95-.31-1.57-.93-2.28-.62-.7-1.36-1.04-2.26-1.04s-1.62.32-2.27.97c-.64.66-.96,1.44-.96,2.4v.15c0,.33.27.6.59.6h5.23Z"/>
  <path fill="#777777" d="M113.6,15.74v3.69h-2.36v-3.69h-3.67v-2.34h3.67v-3.67h2.36v3.67h3.67v2.34h-3.67Z"/>
</svg>
